<svg xmlns="http://www.w3.org/2000/svg" viewBox="0 0 512 512"><circle cx="256" cy="256" r="256" fill="#2e52b2"/><g fill="#ffda44"><path d="m256 89 8 26h27l-22 16 8 26-22-16-22 16 8-26-22-16h27z"/><path d="m256 423-8-26h-27l22-16-8-26 22 16 22-16-8 26 22 16h-27z"/><path d="m89 256 26-8v-27l16 22 26-8-16 22 16 22-26-8-16 22v-27z"/><path d="m423 256-26 8v27l-16-22-26 8 16-22-16-22 26 8 16-22v27z"/><path d="m136 136 20 20 20-20-20 20 20 20-20-20-20 20 20-20z" transform="rotate(45 156 156)"/><path d="m376 136 20 20 20-20-20 20 20 20-20-20-20 20 20-20z" transform="rotate(45 396 156)"/><path d="m136 376 20 20 20-20-20 20 20 20-20-20-20 20 20-20z" transform="rotate(45 156 396)"/><path d="m376 376 20 20 20-20-20 20 20 20-20-20-20 20 20-20z" transform="rotate(45 396 396)"/></g></svg>