<svg xmlns="http://www.w3.org/2000/svg" viewBox="0 0 512 512"><circle cx="256" cy="256" r="256" fill="#f0f0f0"/><path fill="#d80027" d="M0 0h512v39H0zM0 78h512v39H0zM0 156h512v39H0zM0 234h512v39H0zM0 312h512v39H0zM0 390h512v39H0zM0 468h512v39H0z"/><path fill="#2e52b2" d="M0 0h256v273H0z"/><g fill="#f0f0f0"><path d="m45 23 7 23h24l-19 14 7 23-19-14-19 14 7-23-19-14h24z"/><path d="m117 23 7 23h24l-19 14 7 23-19-14-19 14 7-23-19-14h24z"/><path d="m189 23 7 23h24l-19 14 7 23-19-14-19 14 7-23-19-14h24z"/><path d="m81 68 7 23h24l-19 14 7 23-19-14-19 14 7-23-19-14h24z"/><path d="m153 68 7 23h24l-19 14 7 23-19-14-19 14 7-23-19-14h24z"/><path d="m225 68 7 23h24l-19 14 7 23-19-14-19 14 7-23-19-14h24z"/><path d="m45 113 7 23h24l-19 14 7 23-19-14-19 14 7-23-19-14h24z"/><path d="m117 113 7 23h24l-19 14 7 23-19-14-19 14 7-23-19-14h24z"/><path d="m189 113 7 23h24l-19 14 7 23-19-14-19 14 7-23-19-14h24z"/></g></svg>